<svg xmlns="http://www.w3.org/2000/svg" height="1024" width="1024" viewBox="0 0 339000 81000">

    <g transform="scale(0.25)" style="transform-box: fill-box; transform-origin: center;">
        <path fill="#2C3C69"
            d="m76621 68879v-31407h7630v24797h12154v6609h-19784v1zm44926-10780v888c0 296-15 576-44 843h-16013c59 621 244 1183 555 1686s710 938 1197 1309c488 370 1035 658 1642 864 605 208 1234 311 1885 311 1153 0 2130-214 2928-643 799-429 1449-983 1952-1664l5057 3194c-1035 1508-2402 2669-4103 3482-1701 812-3676 1220-5922 1220-1657 0-3224-260-4702-776-1479-518-2772-1271-3882-2263-1108-990-1981-2210-2617-3659s-953-3105-953-4969c0-1803 310-3438 931-4901s1464-2706 2529-3726c1064-1021 2320-1812 3771-2374 1448-561 3016-843 4701-843 1626 0 3120 274 4480 821s2528 1338 3505 2373c976 1035 1736 2292 2284 3771 546 1478 819 3165 819 5056zm-6698-2795c0-1153-362-2144-1087-2972-725-827-1812-1242-3260-1242-710 0-1360 111-1952 333s-1108 525-1553 909c-443 385-798 836-1064 1354-266 518-414 1058-443 1618h9359zm18319-3104v8461c0 1039 200 1817 600 2338 398 520 1115 778 2151 778 354 0 731-28 1131-89 399-59 731-147 998-266l89 5323c-503 177-1139 332-1907 466-770 133-1538 199-2307 199-1479 0-2722-186-3727-556-1006-370-1812-904-2417-1602-607-696-1043-1526-1309-2490-267-963-399-2038-399-3224v-9338h-3549v-5412h3504v-5811h7142v5811h5190v5412h-5190zm28745 1108c-592-561-1286-1034-2085-1419-798-384-1641-577-2528-577-681 0-1309 134-1885 399-577 267-865 726-865 1375 0 621 317 1064 953 1331s1664 562 3083 887c828 178 1664 430 2507 755s1604 754 2284 1286c680 532 1227 1183 1642 1952 413 769 621 1686 621 2750 0 1391-281 2565-843 3526-562 961-1294 1737-2196 2329s-1915 1020-3038 1286c-1124 267-2248 399-3371 399-1805 0-3571-288-5302-865-1729-576-3171-1427-4324-2551l4081-4303c649 710 1448 1302 2395 1774 946 474 1952 710 3017 710 592 0 1176-141 1752-422 577-280 865-776 865-1485 0-681-354-1183-1064-1509-710-325-1818-665-3327-1021-769-177-1538-413-2307-709-770-296-1457-694-2062-1198-606-502-1102-1123-1486-1863-384-738-576-1626-576-2661 0-1331 280-2462 843-3394 562-932 1286-1692 2174-2284 887-592 1870-1027 2949-1309s2151-422 3217-422c1655 0 3274 260 4856 776 1582 518 2921 1294 4015 2329l-3995 4128zm17655 15571v-31407h21114v6388h-13795v5944h13041v6077h-13041v6521h14594v6477h-21913zm41107 0v-12066c0-621-53-1212-155-1774-104-562-274-1057-511-1486-237-428-569-769-998-1021-429-250-969-377-1619-377s-1220 127-1708 377c-487 252-895 600-1220 1043s-569 954-731 1530c-163 577-244 1176-244 1797v11977h-7319v-22091h7053v3061h89c267-473 613-938 1043-1396 428-459 932-851 1508-1176 577-325 1205-592 1886-799 680-206 1404-311 2173-311 1479 0 2735 267 3771 799s1870 1220 2507 2062c636 843 1094 1812 1375 2905 280 1095 421 2189 421 3283v13662h-7321v1zm26038-14950c-415-532-977-960-1686-1286-710-325-1436-488-2174-488-770 0-1464 155-2085 466s-1153 726-1597 1242c-443 518-792 1117-1043 1797-251 681-377 1404-377 2174 0 769 118 1493 355 2173 236 681 583 1280 1042 1797 458 518 1005 925 1642 1220 636 296 1353 443 2151 443 738 0 1471-140 2195-421s1309-688 1752-1220l4037 4924c-917 887-2101 1582-3549 2085-1449 502-2987 754-4613 754-1745 0-3374-267-4887-799-1512-532-2826-1309-3941-2329-1116-1020-1993-2254-2633-3703s-959-3090-959-4924c0-1804 319-3431 959-4880 640-1448 1517-2684 2633-3704 1115-1021 2430-1804 3941-2351 1513-547 3127-821 4843-821 798 0 1589 74 2373 223 783 147 1537 348 2262 599s1390 562 1996 932 1132 776 1575 1220l-4212 4877zm21319-1153c-326-89-644-147-954-177s-614-45-909-45c-976 0-1797 178-2462 531-665 354-1197 781-1597 1283-399 501-688 1047-865 1637s-266 1105-266 1548v11325h-7275v-22064h7009v3194h89c562-1132 1359-2055 2396-2770 1034-715 2232-1072 3593-1072 295 0 584 16 865 45 280 29 510 74 688 133l-312 6432zm17090 19430c-443 1153-939 2181-1486 3083-547 901-1197 1670-1951 2307-754 636-1642 1115-2662 1441-1020 325-2226 488-3615 488-681 0-1383-45-2106-134-726-89-1354-207-1886-354l799-6121c354 117 746 214 1176 288 428 73 820 110 1175 110 1124 0 1937-259 2440-776 502-518 931-1249 1286-2195l710-1818-9227-21736h8073l4924 14195h133l4392-14195h7718l-9893 25417zm36374-14461c0 1538-237 3017-710 4436-474 1420-1161 2669-2062 3748-902 1080-2004 1945-3305 2596-1302 649-2780 976-4437 976-1360 0-2646-273-3859-820s-2158-1294-2839-2240h-88v13086h-7275v-32739h6920v2706h133c681-887 1619-1663 2817-2329 1197-665 2609-998 4236-998 1597 0 3045 311 4347 932 1301 621 2402 1464 3305 2528s1597 2300 2085 3704c488 1405 732 2877 732 4414zm-7053 0c0-710-110-1404-332-2085-222-680-548-1279-977-1797-429-517-969-938-1619-1264s-1404-488-2262-488c-828 0-1568 163-2218 488-651 325-1206 754-1664 1286-459 532-813 1139-1064 1818-252 681-377 1375-377 2085s125 1405 377 2085c251 681 605 1286 1064 1818 458 532 1013 962 1664 1287 649 325 1390 487 2218 487 857 0 1611-162 2262-487s1190-755 1619-1287 755-1146 977-1841c221-693 332-1395 332-2105zm18675-5545v8461c0 1039 200 1817 600 2338 398 520 1115 778 2151 778 354 0 731-28 1131-89 399-59 731-147 998-266l89 5323c-503 177-1139 332-1907 466-770 133-1538 199-2307 199-1479 0-2722-186-3727-556-1006-370-1812-904-2417-1602-607-696-1043-1526-1309-2490-267-963-399-2038-399-3224v-9338h-3549v-5412h3504v-5811h7142v5811h5190v5412h-5190zm-188108-15330c-2183 0-3892 1573-3892 3582 0 2116 1439 3537 3582 3537 183 0 356-17 519-50-343 1566-1852 2690-3278 2915l-290 46v3377l376-36c1730-165 3439-951 4691-2157 1632-1573 2495-3844 2495-6568 0-2692-1768-4646-4203-4646z" />
        <path fill="#F9A11D"
            d="m46489 37568h-8040v-4128c0-3297-2683-5979-5980-5979-3297 0-5979 2683-5979 5979v4128h-8040v-4128c0-7730 6289-14020 14020-14020s14020 6289 14020 14020v4128h-1z" />
        <path fill="#2C3C69"
            d="m49732 37568h-34525c-1474 0-2680 1206-2680 2680v25540c0 1474 1206 2680 2680 2680h34525c1474 0 2680-1206 2680-2680v-25540c0-1474-1206-2680-2680-2680zm-15513 16769v3461c0 966-784 1749-1749 1749s-1749-784-1749-1749v-3460c-1076-611-1803-1764-1803-3090 0-1962 1591-3552 3552-3552 1962 0 3552 1591 3552 3552 0 1325-727 2478-1803 3089z" />
        <path fill="#F9A11D"
            d="m11707 33760h-8331c-1351 0-2446-1095-2446-2446s1095-2446 2446-2446h8331c1351 0 2446 1095 2446 2446s-1096 2446-2446 2446zm5868-13105c-546 0-1097-182-1552-557l-6590-5419c-1043-858-1194-2399-335-3443 858-1043 2399-1194 3443-336l6590 5419c1043 858 1194 2399 335 3443-483 589-1184 893-1891 893zm14894-5760c-1351 0-2446-1095-2446-2446v-8397c0-1351 1095-2446 2446-2446s2446 1095 2446 2446v8397c0 1351-1095 2446-2446 2446zm14894 5760c-707 0-1407-304-1891-893-858-1043-708-2585 335-3443l6590-5419c1044-858 2585-707 3443 336 858 1043 708 2585-335 3443l-6590 5419c-455 375-1005 557-1552 557zm14200 13105h-8410c-1351 0-2446-1095-2446-2446s1095-2446 2446-2446h8410c1351 0 2446 1095 2446 2446s-1095 2446-2446 2446z" />
    </g>
</svg>