<?xml version="1.0" encoding="utf-8"?>
<!-- Generator: Adobe Illustrator 28.0.0, SVG Export Plug-In . SVG Version: 6.00 Build 0)  -->
<svg version="1.1" id="Layer_1" xmlns="http://www.w3.org/2000/svg" xmlns:xlink="http://www.w3.org/1999/xlink" x="0px" y="0px"
	 viewBox="0 0 512 512" style="enable-background:new 0 0 512 512;" xml:space="preserve">
<style type="text/css">
	.st0{fill-rule:evenodd;clip-rule:evenodd;}
	.st1{fill-rule:evenodd;clip-rule:evenodd;fill:#FFFFFE;}
	.st2{fill-rule:evenodd;clip-rule:evenodd;fill:#0082FC;}
</style>
<g id="bluetooth-logo-color-black">
	<path id="Fill-1" class="st0" d="M113.79,299.39h23.54c16.94,0,23.3-10.81,23.3-25.1c0-11.17-4.44-17.18-12.01-20.54
		c7.21-2.88,10.33-10.69,10.33-18.14c0-14.77-7.09-22.94-23.06-22.94h-22.1V299.39z M128.69,224.92h5.65c6.6,0,9.73,4.2,9.73,12.25
		c0,7.21-4.32,11.05-9.97,11.05h-5.41V224.92z M128.69,260.47h4.81c8.89,0,12.25,4.44,12.25,13.33c0,8.77-2.88,13.33-10.81,13.33
		h-6.25V260.47L128.69,260.47z"/>
	<polygon id="Fill-2" class="st0" points="166.53,299.39 179.98,299.39 179.98,212.67 166.53,212.67 	"/>
	<path id="Fill-3" class="st0" d="M216.01,234.77v50.69c-3.12,2.28-5.76,4.08-8.65,4.08s-4.81-1.44-4.81-4.68v-50.09H189.1v52.25
		c0,8.41,4.2,13.57,11.29,13.57c7.81,0,10.69-2.88,16.34-7.69v6.49h12.73v-64.62H216.01"/>
	<path id="Fill-4" class="st0" d="M279.52,257.59c0-14.17-5.53-24.02-20.9-24.02c-15.37,0-20.9,9.85-20.9,24.02v18.98
		c0,14.17,5.52,24.02,20.9,24.02c15.01,0,20.66-9.37,20.9-23.06h-13.45v1.44c0,7.45-2.64,10.57-7.45,10.57
		c-4.8,0-7.45-3.12-7.45-10.57v-9.37h28.35V257.59z M251.18,258.55v-3.36c0-7.45,2.64-10.57,7.45-10.57c4.8,0,7.45,3.12,7.45,10.57
		v3.36H251.18L251.18,258.55z"/>
	<path id="Fill-5" class="st0" d="M502.4,218.13h-1.17v3.2h0.72c1.67,0,2.21-0.95,2.21-1.8
		C504.16,218.53,503.71,218.13,502.4,218.13z M504.25,227.09l-2.88-4.6h-0.14v4.6h-1.8v-10.41h3.15c2.48,0,3.47,1.04,3.47,2.61
		c0,1.76-1.08,2.84-2.75,3.02c0.22,0.27,0.63,0.86,1.04,1.49l2.16,3.29H504.25z M495.15,221.86c0,4.06,3.29,7.57,7.34,7.57
		c4.1,0,7.34-3.33,7.34-7.39c0-4.1-3.24-7.57-7.34-7.57C498.44,214.48,495.15,217.81,495.15,221.86z M512,221.96
		c0,5.14-4.37,9.46-9.51,9.46c-5.36,0-9.46-4.14-9.46-9.46c0-5.23,4.23-9.46,9.46-9.46C507.86,212.49,512,216.59,512,221.96
		L512,221.96z"/>
	<path id="Fill-6" class="st0" d="M291.39,245.82v40.24c0,9.85,5.64,14.54,15.73,14.54c3.36,0,4.93-0.24,6.73-0.72v-11.53h-4.44
		c-3.12,0-4.57-1.92-4.57-5.29v-37.24h9.01v-11.05h-9.01v-17.42h-13.45v17.42h-7.45v11.05H291.39"/>
	<path id="Fill-7" class="st0" d="M319.47,276.57c0,14.17,5.53,24.02,20.9,24.02s20.9-9.85,20.9-24.02v-18.98
		c0-14.17-5.52-24.02-20.9-24.02s-20.9,9.85-20.9,24.02V276.57z M347.81,278.97c0,7.45-2.64,10.57-7.45,10.57
		c-4.8,0-7.45-3.12-7.45-10.57v-23.78c0-7.45,2.64-10.57,7.45-10.57c4.81,0,7.45,3.12,7.45,10.57V278.97L347.81,278.97z"/>
	<path id="Fill-8" class="st0" d="M368.33,276.57c0,14.17,5.52,24.02,20.9,24.02s20.9-9.85,20.9-24.02v-18.98
		c0-14.17-5.53-24.02-20.9-24.02s-20.9,9.85-20.9,24.02V276.57z M396.68,278.97c0,7.45-2.64,10.57-7.45,10.57
		c-4.8,0-7.45-3.12-7.45-10.57v-23.78c0-7.45,2.64-10.57,7.45-10.57c4.8,0,7.45,3.12,7.45,10.57V278.97L396.68,278.97z"/>
	<path id="Fill-9" class="st0" d="M421.64,245.82v40.24c0,9.85,5.65,14.54,15.74,14.54c3.36,0,4.92-0.24,6.73-0.72v-11.53h-4.44
		c-3.12,0-4.56-1.92-4.56-5.29v-37.24h9.01v-11.05h-9.01v-17.42h-13.45v17.42h-7.45v11.05H421.64"/>
	<path id="Fill-10" class="st0" d="M465.93,299.39V248.7c3.12-2.28,5.77-4.08,8.65-4.08s4.81,1.44,4.81,4.68v50.09h13.45v-52.25
		c0-8.41-4.2-13.57-11.29-13.57c-7.81,0-10.69,2.88-15.62,7.21v-28.11h-13.45v86.72H465.93"/>
	<path id="Fill-11" class="st1" d="M82.27,255.44c0,32.79-16.07,59.37-35.89,59.37c-19.82,0-35.89-26.58-35.89-59.37
		c0-32.79,16.07-59.37,35.89-59.37C66.2,196.07,82.27,222.65,82.27,255.44"/>
	<path id="Fill-12" class="st2" d="M46.35,318.83c27.44,0,46.35-13.03,46.35-62.83s-18.91-62.83-46.35-62.83S0,206.2,0,256
		S18.92,318.83,46.35,318.83z M40.34,256l-22.46-22.52l6.51-6.51l17.9,17.9v-42.9l32.54,32.54L53.33,256l21.49,21.49l-32.54,32.54
		v-42.9l-17.9,17.9l-6.51-6.51L40.34,256z M51.43,287.8l10.39-10.39l-10.38-10.38L51.43,287.8z M51.43,224.2l10.39,10.39
		l-10.38,10.38L51.43,224.2L51.43,224.2z"/>
</g>
</svg>
