<?xml version='1.0' encoding='utf-8'?>
<svg xmlns="http://www.w3.org/2000/svg" width="337.72mm" height="262.98mm" version="1.1" viewBox="0 0 337.72 262.98"> <defs> <linearGradient id="c" x1="129.65" x2="145.14" y1="125.17" y2="152.35" gradientUnits="userSpaceOnUse"> <stop stop-color="#3c098a" offset="0"/> <stop stop-color="#250657" offset="1"/> </linearGradient> <linearGradient id="b" x1=".66139" x2="-17.198" y1="151.94" y2="186.93" gradientUnits="userSpaceOnUse"> <stop stop-color="#3f0a93" offset="0"/> </linearGradient> <linearGradient id="a" x1="96.294" x2="69.688" y1="108.87" y2="-51.655" gradientUnits="userSpaceOnUse"> <stop stop-color="#34097a" offset="0"/> </linearGradient> </defs> <g transform="translate(60.068 36.325)"> <rect x="-60.068" y="-36.325" width="337.72" height="262.98" fill="#250657"/> <g transform="translate(3.175 1.0583)"> <path d="m43.301 175 216.51-125v50l-216.51 125v-50" fill="url(#c)"/> <path d="m-43.301 125 86.603 50v50l-86.603-50z" fill="url(#b)"/> <path d="m-43.301 125 216.51-125 86.603 50-216.51 125z" fill="url(#a)"/> </g> </g> <g transform="translate(-27.648 -102.98)"> <g transform="translate(-21.328 -5.6622)"> <path d="m309.75 135.45v6.6667l5.7735 3.3333v-6.6667z" fill="#dd1a22"/> <path d="m321.3 142.11v6.6667l5.7735 3.3333v-6.6667l-5.7735-3.3333" fill="#dd1a22"/> <path d="m295.56 169.31 40.415 23.333 5.7735-3.3333-40.415-23.333z" fill="#00a3da"/> <path d="m303.98 152.11v13.333l28.868 16.667v-13.333l-5.7735-3.3333v6.6667l-17.32-10v-6.6667l-5.7735-3.3333" fill="#00b04e"/> <path d="m315.53 152.11v6.6667l5.7735 3.3333v-6.6667z" fill="#f5921f"/> <path d="m295.56 169.31 5.7735-3.3333v-40l34.641 20v46.667l5.7735-3.3333v-46.667l-40.415-23.333-5.7735 3.3333v46.667" fill="#006cb7"/> </g> <path d="m278.24 179.31-5.1761 2.9884a15.015 15.015 165 0 1-7.5073 2.0116h-10.314a11.132 11.132 165 0 0-5.5662 1.4915l-21.431 12.373a3.9329 3.9329 120 0 0-1.9664 3.406v4.6538a5.3271 5.3271 120 0 1-2.6636 4.6134l-5.9967 3.4622" fill="none" stroke="#00b04e" stroke-linejoin="round" stroke-miterlimit="4" stroke-width="2"/> <path d="m243.6 209.31-15.29 8.8274a4.062 4.062 120 0 0-2.031 3.5178v5.644a3.4829 3.4829 120 0 1-1.7414 3.0163l-21.524 12.427a11.703 11.703 165 0 1-5.8517 1.568h-10.742a13.205 13.205 165.39 0 0-6.4468 1.6807l-1.2429 0.6953" fill="none" stroke="#00a3da" stroke-linecap="round" stroke-linejoin="round" stroke-miterlimit="4" stroke-width="2"/> <path d="m197.67 215.8-3.1292 1.8216a12.452 12.452 164.9 0 1-6.2644 1.6905h-10.745a12.001 12.001 165 0 0-6.0004 1.6078l-21.414 12.364a3.5632 3.5632 120 0 0-1.7816 3.0859v5.0889a4.943 4.943 120 0 1-2.4715 4.2808l-6.1888 3.5731" fill="none" stroke="#f5921f" stroke-linecap="round" stroke-linejoin="round" stroke-miterlimit="4" stroke-width="2"/> <path d="m260.92 189.31-5.9584 3.4401a5.4038 5.4038 120 0 0-2.7019 4.6798v4.7129a3.7538 3.7538 120 0 1-1.8769 3.2508l-81.907 47.289a12.149 12.149 165 0 1-6.0743 1.6276h-9.7363a16.156 16.156 165 0 0-8.078 2.1645l-4.9112 2.8355" fill="none" stroke="#006cb7" stroke-linecap="round" stroke-linejoin="round" stroke-miterlimit="4" stroke-width="2"/> <path d="m226.28 209.31-5.9876 3.4569a11.518 11.518 165 0 1-5.7588 1.5431h-11.65a9.6456 9.6456 165 0 0-4.8228 1.2923l-73.888 42.659a3.633 3.633 120 0 0-1.8165 3.1463v4.4957a5.9007 5.9007 120 0 1-2.9503 5.1101l-5.7099 3.2966" fill="none" stroke="#dd1a22" stroke-linecap="round" stroke-linejoin="round" stroke-miterlimit="4" stroke-width="2"/> <path d="m286.9 174.31-181.87 105" fill="#00a3da" stroke="#e6e6e6" stroke-linejoin="round" stroke-miterlimit="4" stroke-width="2"/> <path d="m170.59 246.78a8.6603 8.6603 0 0 1 8.6603 0 2.8868 2.8868 0 0 1 0 5 8.6603 8.6603 0 0 1-8.6603 0 2.8868 2.8868 0 0 1 0-5z" fill="#300870" stroke="#006cb7" stroke-linejoin="miter" stroke-miterlimit="4" stroke-width="2"/> <path d="m211.13 233.4a8.6603 8.6603 0 0 1 8.6603 0 2.8868 2.8868 0 0 1 0 5 8.6603 8.6603 0 0 1-8.6603 0 2.8868 2.8868 0 0 1 0-5z" fill="#300870" stroke="#00a3da" stroke-linejoin="miter" stroke-miterlimit="4" stroke-width="2"/> <path d="m193.87 233.33a8.6603 8.6603 0 0 1 8.6603 0 2.8868 2.8868 0 0 1 0 5 8.6603 8.6603 0 0 1-8.6603 0 2.8868 2.8868 0 0 1 0-5z" fill="#300870" stroke="#006cb7" stroke-linejoin="miter" stroke-miterlimit="4" stroke-width="2"/> <path d="m131.31 249.44a8.6603 8.6603 0 0 1 8.6603 0 2.8868 2.8868 0 0 1 0 5 8.6603 8.6603 0 0 1-8.6603 0 2.8868 2.8868 0 0 1 0-5z" fill="#300870" stroke="#dd1a22" stroke-linejoin="miter" stroke-miterlimit="4" stroke-width="2"/> <path d="m173.95 224.97a8.6603 8.6603 0 0 1 8.6603 0 2.8868 2.8868 0 0 1 0 5 8.6603 8.6603 0 0 1-8.6603 0 2.8868 2.8868 0 0 1 0-5z" fill="#300870" stroke="#dd1a22" stroke-linejoin="miter" stroke-miterlimit="4" stroke-width="2"/> <path d="m154.16 226.32a8.6603 8.6603 0 0 1 8.6603 0 2.8868 2.8868 0 0 1 0 5 8.6603 8.6603 0 0 1-8.6603 0 2.8868 2.8868 0 0 1 0-5z" fill="#300870" stroke="#f5921f" stroke-linejoin="miter" stroke-miterlimit="4" stroke-width="2"/> <path d="m234.32 189.78a8.6603 8.6603 0 0 1 8.6603 0 2.8868 2.8868 0 0 1 0 5 8.6603 8.6603 0 0 1-8.6603 0 2.8868 2.8868 0 0 1 0-5z" fill="#300870" stroke="#00b04e" stroke-linejoin="miter" stroke-miterlimit="4" stroke-width="2"/> <path d="m238.62 207.49a8.6603 8.6603 0 0 1 8.6603 0 2.8868 2.8868 0 0 1 0 5 8.6603 8.6603 0 0 1-8.6603 0 2.8868 2.8868 0 0 1 0-5z" fill="#300870" stroke="#006cb7" stroke-linejoin="miter" stroke-miterlimit="4" stroke-width="2"/> <path d="m101.85 276.26a8.6603 8.6603 0 0 1 8.6603 0 2.8868 2.8868 0 0 1 0 5 8.6603 8.6603 0 0 1-8.6603 0 2.8868 2.8868 0 0 1 0-5z" fill="#300870" stroke="#e6e6e6" stroke-linejoin="miter" stroke-miterlimit="4" stroke-width="2"/> <path d="m280.31 173.44 11.872-2.2847-3.9572 6.8541-7.9145-4.5694" fill="#e6e6e6"/> </g> </svg>